<svg fill="none" xmlns="http://www.w3.org/2000/svg">
	<symbol id="edit" viewBox="0 0 24 24">
		<path fill="currentColor" d="M3 17.25V21h3.75L17.81 9.94l-3.75-3.75L3 17.25zM20.71 7.04c.39-.39.39-1.02 0-1.41l-2.34-2.34c-.39-.39-1.02-.39-1.41 0l-1.83 1.83 3.75 3.75 1.83-1.83z" />
	</symbol>

	<symbol id="delete" viewBox="0 0 24 24">
		<path fill="currentColor" d="M18.3 5.71c-.39-.39-1.02-.39-1.41 0L12 10.59 7.11 5.7c-.39-.39-1.02-.39-1.41 0-.39.39-.39 1.02 0 1.41L10.59 12 5.7 16.89c-.39.39-.39 1.02 0 1.41.39.39 1.02.39 1.41 0L12 13.41l4.89 4.88c.39.39 1.02.39 1.41 0 .39-.39.39-1.02 0-1.41L13.41 12l4.89-4.89c.38-.38.38-1.02 0-1.4z" />
	</symbol>

	<symbol id="close" viewBox="0 0 14 14">
		<path fill="currentColor" fill-rule="evenodd" clip-rule="evenodd" d="M0.292893 0.292893C0.683417 -0.0976309 1.31658 -0.0976309 1.70711 0.292893L7 5.58579L12.2929 0.292893C12.6834 -0.0976311 13.3166 -0.0976311 13.7071 0.292893C14.0976 0.683417 14.0976 1.31658 13.7071 1.70711L8.41421 7L13.7071 12.2929C14.0976 12.6834 14.0976 13.3166 13.7071 13.7071C13.3166 14.0976 12.6834 14.0976 12.2929 13.7071L7 8.41421L1.70711 13.7071C1.31658 14.0976 0.683418 14.0976 0.292893 13.7071C-0.0976309 13.3166 -0.0976309 12.6834 0.292893 12.2929L5.58579 7L0.292893 1.70711C-0.0976311 1.31658 -0.0976311 0.683418 0.292893 0.292893Z" />
	</symbol>
</svg>
